<mxfile host="app.diagrams.net" modified="2020-10-19T14:12:03.957Z" agent="5.0 (Windows NT 10.0; WOW64) AppleWebKit/537.36 (KHTML, like Gecko) Chrome/86.0.4240.75 Safari/537.36" etag="RzAFmSCGqQhSj_7zCjqB" version="13.8.0" type="github">
  <diagram id="pwO4rQPGBJkzqjzFGWmT" name="Page-1">
    <mxGraphModel dx="868" dy="425" grid="1" gridSize="10" guides="1" tooltips="1" connect="1" arrows="1" fold="1" page="1" pageScale="1" pageWidth="827" pageHeight="1169" math="0" shadow="0">
      <root>
        <mxCell id="0" />
        <mxCell id="1" parent="0" />
        <mxCell id="pYifvQT2HWXIfOrz_YcY-4" value="&lt;font size=&quot;1&quot;&gt;&lt;b style=&quot;font-size: 9px&quot;&gt;ROMS (7 days hindcast)&lt;/b&gt;&lt;/font&gt;" style="rounded=0;whiteSpace=wrap;html=1;fillColor=#eeeeee;strokeColor=#36393d;verticalAlign=middle;" parent="1" vertex="1">
          <mxGeometry x="280" y="160" width="130" height="20" as="geometry" />
        </mxCell>
        <mxCell id="pYifvQT2HWXIfOrz_YcY-7" value="&lt;font size=&quot;1&quot;&gt;&lt;b style=&quot;font-size: 9px&quot;&gt;ROMS (7 days forecast)&lt;/b&gt;&lt;/font&gt;" style="rounded=0;whiteSpace=wrap;html=1;verticalAlign=middle;dashed=1;" parent="1" vertex="1">
          <mxGeometry x="410" y="160" width="130" height="20" as="geometry" />
        </mxCell>
        <mxCell id="pYifvQT2HWXIfOrz_YcY-8" value="&lt;font size=&quot;1&quot;&gt;&lt;b style=&quot;font-size: 9px&quot;&gt;ROMS (7 days forecast)&lt;/b&gt;&lt;/font&gt;" style="rounded=0;whiteSpace=wrap;html=1;verticalAlign=middle;dashed=1;" parent="1" vertex="1">
          <mxGeometry x="430" y="180" width="130" height="20" as="geometry" />
        </mxCell>
        <mxCell id="pYifvQT2HWXIfOrz_YcY-9" value="&lt;font size=&quot;1&quot;&gt;&lt;b style=&quot;font-size: 9px&quot;&gt;ROMS (7 days forecast)&lt;/b&gt;&lt;/font&gt;" style="rounded=0;whiteSpace=wrap;html=1;verticalAlign=middle;dashed=1;" parent="1" vertex="1">
          <mxGeometry x="450" y="200" width="130" height="20" as="geometry" />
        </mxCell>
        <mxCell id="pYifvQT2HWXIfOrz_YcY-10" value="&lt;font size=&quot;1&quot;&gt;&lt;b style=&quot;font-size: 9px&quot;&gt;ROMS (7 days forecast)&lt;/b&gt;&lt;/font&gt;" style="rounded=0;whiteSpace=wrap;html=1;verticalAlign=middle;dashed=1;" parent="1" vertex="1">
          <mxGeometry x="470" y="220" width="130" height="20" as="geometry" />
        </mxCell>
        <mxCell id="30RJS0q0PBS2WoNAkkCa-1" value="&lt;font size=&quot;1&quot;&gt;&lt;b style=&quot;font-size: 9px&quot;&gt;ROMS (7 days forecast)&lt;/b&gt;&lt;/font&gt;" style="rounded=0;whiteSpace=wrap;html=1;verticalAlign=middle;dashed=1;" parent="1" vertex="1">
          <mxGeometry x="490" y="240" width="130" height="20" as="geometry" />
        </mxCell>
        <mxCell id="30RJS0q0PBS2WoNAkkCa-2" value="&lt;font size=&quot;1&quot;&gt;&lt;b style=&quot;font-size: 9px&quot;&gt;ROMS (7 days forecast)&lt;/b&gt;&lt;/font&gt;" style="rounded=0;whiteSpace=wrap;html=1;verticalAlign=middle;dashed=1;" parent="1" vertex="1">
          <mxGeometry x="510" y="260" width="130" height="20" as="geometry" />
        </mxCell>
        <mxCell id="30RJS0q0PBS2WoNAkkCa-3" value="&lt;font size=&quot;1&quot;&gt;&lt;b style=&quot;font-size: 9px&quot;&gt;ROMS (7 days forecast)&lt;/b&gt;&lt;/font&gt;" style="rounded=0;whiteSpace=wrap;html=1;verticalAlign=middle;dashed=1;" parent="1" vertex="1">
          <mxGeometry x="530" y="280" width="130" height="20" as="geometry" />
        </mxCell>
        <mxCell id="30RJS0q0PBS2WoNAkkCa-4" value="&lt;font size=&quot;1&quot;&gt;&lt;b style=&quot;font-size: 9px&quot;&gt;ROMS (7 days hindcast)&lt;/b&gt;&lt;/font&gt;" style="rounded=0;whiteSpace=wrap;html=1;fillColor=#eeeeee;strokeColor=#36393d;verticalAlign=middle;" parent="1" vertex="1">
          <mxGeometry x="410" y="300" width="140" height="20" as="geometry" />
        </mxCell>
        <mxCell id="30RJS0q0PBS2WoNAkkCa-5" value="&lt;font size=&quot;1&quot;&gt;&lt;b style=&quot;font-size: 9px&quot;&gt;ROMS (7 days forecast)&lt;/b&gt;&lt;/font&gt;" style="rounded=0;whiteSpace=wrap;html=1;verticalAlign=middle;dashed=1;" parent="1" vertex="1">
          <mxGeometry x="550" y="300" width="130" height="20" as="geometry" />
        </mxCell>
        <mxCell id="30RJS0q0PBS2WoNAkkCa-7" value="" style="strokeWidth=1;html=1;shape=mxgraph.flowchart.annotation_2;align=left;labelPosition=right;pointerEvents=1;rotation=90;" parent="1" vertex="1">
          <mxGeometry x="400" y="130" width="36" height="20" as="geometry" />
        </mxCell>
        <mxCell id="30RJS0q0PBS2WoNAkkCa-9" value="&lt;b&gt;&lt;font style=&quot;font-size: 9px&quot;&gt;1 day&lt;/font&gt;&lt;/b&gt;" style="text;html=1;align=center;verticalAlign=bottom;whiteSpace=wrap;rounded=0;perimeterSpacing=0;fontColor=#333333;fillColor=#CCCCCC;" parent="1" vertex="1">
          <mxGeometry x="399" y="100" width="38" height="20" as="geometry" />
        </mxCell>
        <mxCell id="I8OCzsZrOeZ4LIsiNRNC-1" value="&lt;font size=&quot;1&quot;&gt;&lt;b style=&quot;font-size: 11px&quot;&gt;Mercator (hindcast + forecast)&amp;nbsp;&lt;/b&gt;&lt;/font&gt;" style="rounded=0;whiteSpace=wrap;html=1;fillColor=#eeeeee;strokeColor=#36393d;verticalAlign=middle;dashed=1;" parent="1" vertex="1">
          <mxGeometry x="280" y="340" width="400" height="20" as="geometry" />
        </mxCell>
        <mxCell id="I8OCzsZrOeZ4LIsiNRNC-2" value="&lt;font size=&quot;1&quot;&gt;&lt;b style=&quot;font-size: 11px&quot;&gt;GFS&amp;nbsp;&lt;/b&gt;&lt;/font&gt;&lt;b style=&quot;font-size: 11px&quot;&gt;(&lt;/b&gt;&lt;b style=&quot;font-size: 11px&quot;&gt;hindcast + forecast&lt;/b&gt;&lt;b style=&quot;font-size: 11px&quot;&gt;)&lt;/b&gt;" style="rounded=0;whiteSpace=wrap;html=1;fillColor=#eeeeee;strokeColor=#36393d;verticalAlign=middle;dashed=1;" parent="1" vertex="1">
          <mxGeometry x="280" y="360" width="400" height="20" as="geometry" />
        </mxCell>
        <mxCell id="5IlJGEIq7i8ATEb_BM2H-1" value="" style="endArrow=classic;startArrow=classic;html=1;" parent="1" edge="1">
          <mxGeometry width="50" height="50" relative="1" as="geometry">
            <mxPoint x="275" y="400" as="sourcePoint" />
            <mxPoint x="675" y="400" as="targetPoint" />
          </mxGeometry>
        </mxCell>
        <mxCell id="5IlJGEIq7i8ATEb_BM2H-2" value="&lt;b&gt;Nesting&lt;/b&gt;" style="rounded=1;whiteSpace=wrap;html=1;" parent="1" vertex="1">
          <mxGeometry x="420" y="400" width="120" height="20" as="geometry" />
        </mxCell>
      </root>
    </mxGraphModel>
  </diagram>
</mxfile>
